<svg xmlns="http://www.w3.org/2000/svg" viewBox="0 0 24 30" fill="none" x="0px" y="0px"><path fill-rule="evenodd" clip-rule="evenodd" d="M8 10V8C8 5.79086 9.79086 4 12 4C13.8638 4 15.4299 5.27477 15.874 7L17.7741 6.36353C17.7645 6.32944 17.7545 6.29547 17.7443 6.26163C16.999 3.7956 14.7092 2 12 2C8.68629 2 6 4.68629 6 8V10H5C3.89543 10 3 10.8954 3 12V20C3 21.1046 3.89543 22 5 22H19C20.1046 22 21 21.1046 21 20V12C21 10.8954 20.1046 10 19 10H8ZM13 16.7324C13.5978 16.3866 14 15.7403 14 15C14 13.8954 13.1046 13 12 13C10.8954 13 10 13.8954 10 15C10 15.7403 10.4022 16.3866 11 16.7324V19H13V16.7324Z" fill="black"/><text x="0" y="39" fill="#000000" font-size="5px" font-weight="bold" font-family="'Helvetica Neue', Helvetica, Arial-Unicode, Arial, Sans-serif">Created by Cetha Studio</text><text x="0" y="44" fill="#000000" font-size="5px" font-weight="bold" font-family="'Helvetica Neue', Helvetica, Arial-Unicode, Arial, Sans-serif">from the Noun Project</text></svg>