<svg xmlns="http://www.w3.org/2000/svg" viewBox="0 0 24 30" fill="none" x="0px" y="0px"><path fill-rule="evenodd" clip-rule="evenodd" d="M8 10V8C8 5.79086 9.79086 4 12 4C14.2091 4 16 5.79086 16 8V10H8ZM6 10V8C6 4.68629 8.68629 2 12 2C15.3137 2 18 4.68629 18 8V10H19C20.1046 10 21 10.8954 21 12V20C21 21.1046 20.1046 22 19 22H5C3.89543 22 3 21.1046 3 20V12C3 10.8954 3.89543 10 5 10H6ZM13 16.7324C13.5978 16.3866 14 15.7403 14 15C14 13.8954 13.1046 13 12 13C10.8954 13 10 13.8954 10 15C10 15.7403 10.4022 16.3866 11 16.7324V19H13V16.7324Z" fill="black"/><text x="0" y="39" fill="#000000" font-size="5px" font-weight="bold" font-family="'Helvetica Neue', Helvetica, Arial-Unicode, Arial, Sans-serif">Created by Cetha Studio</text><text x="0" y="44" fill="#000000" font-size="5px" font-weight="bold" font-family="'Helvetica Neue', Helvetica, Arial-Unicode, Arial, Sans-serif">from the Noun Project</text></svg>